<svg width="101" height="100" viewBox="0 0 101 100" fill="none" xmlns="http://www.w3.org/2000/svg">
<path d="M91.375 88.125L62.2083 58.9584C62.0213 58.7591 61.7954 58.6002 61.5445 58.4916C61.2937 58.3831 61.0233 58.327 60.75 58.327C60.4767 58.327 60.2062 58.3831 59.9554 58.4916C59.7046 58.6002 59.4787 58.7591 59.2917 58.9584L52.4167 65.7917L33.6667 47.0417V37.5H46.1667V41.6667C46.1667 42.2192 46.3861 42.7491 46.7768 43.1398C47.1675 43.5305 47.6975 43.75 48.25 43.75H73.25C73.6342 43.7456 74.0103 43.6391 74.3398 43.4414C74.6693 43.2437 74.9403 42.962 75.125 42.625C75.2888 42.2787 75.356 41.8944 75.3193 41.513C75.2826 41.1316 75.1435 40.7672 74.9166 40.4584L67.5 30.2084L74.9166 19.9584C75.1778 19.67 75.3547 19.3154 75.4282 18.9334C75.5017 18.5513 75.4689 18.1564 75.3333 17.7917C75.1326 17.4223 74.8288 17.1192 74.4589 16.9195C74.089 16.7197 73.669 16.6319 73.25 16.6667H58.6667V10.4167C58.6667 9.86417 58.4472 9.33427 58.0565 8.94357C57.6658 8.55287 57.1359 8.33337 56.5833 8.33337H31.5833C31.0308 8.33337 30.5009 8.55287 30.1102 8.94357C29.7195 9.33427 29.5 9.86417 29.5 10.4167V47.0417L10.5 66.0417C9.33519 67.2178 8.67712 68.8031 8.66666 70.4584V85.4167C8.66666 87.0743 9.32514 88.664 10.4972 89.8361C11.6693 91.0082 13.2591 91.6667 14.9167 91.6667H89.9167C90.328 91.6646 90.7295 91.5409 91.0705 91.311C91.4116 91.0812 91.677 90.7555 91.8333 90.375C92.0035 89.9995 92.0508 89.5798 91.9685 89.1758C91.8862 88.7718 91.6785 88.4041 91.375 88.125ZM69.1667 20.8334L63.25 29.1667C62.9864 29.5144 62.8437 29.9387 62.8437 30.375C62.8437 30.8114 62.9864 31.2357 63.25 31.5834L69.1667 39.9167H50.3333V37.5H56.5833C57.1359 37.5 57.6658 37.2805 58.0565 36.8898C58.4472 36.4991 58.6667 35.9692 58.6667 35.4167V20.8334H69.1667ZM54.5 33.3334H33.6667V12.5H54.5V33.3334ZM14.9167 87.5C14.3641 87.5 13.8342 87.2805 13.4435 86.8898C13.0528 86.4991 12.8333 85.9692 12.8333 85.4167V70.4584C12.83 70.1851 12.8839 69.9142 12.9915 69.6631C13.0992 69.4119 13.2582 69.1861 13.4583 69L31.5833 50.875L50.9583 70.2084L68.2083 87.5H14.9167ZM74.125 87.5L55.375 68.75L60.75 63.375L84.875 87.5H74.125Z" fill="#83A11D"/>
</svg>
