<svg width="84" height="84" viewBox="0 0 84 84" fill="none" xmlns="http://www.w3.org/2000/svg">
<path d="M83.0416 80.125L53.8749 50.9584C53.6879 50.7591 53.462 50.6002 53.2111 50.4916C52.9603 50.3831 52.6899 50.327 52.4166 50.327C52.1433 50.327 51.8728 50.3831 51.622 50.4916C51.3712 50.6002 51.1453 50.7591 50.9582 50.9584L44.0833 57.7917L25.3333 39.0417V29.5H37.8333V33.6667C37.8333 34.2192 38.0527 34.7491 38.4434 35.1398C38.8341 35.5305 39.364 35.75 39.9166 35.75H64.9166C65.3008 35.7456 65.6769 35.6391 66.0064 35.4414C66.3359 35.2437 66.6069 34.962 66.7916 34.625C66.9554 34.2787 67.0226 33.8944 66.9859 33.513C66.9492 33.1316 66.8101 32.7672 66.5832 32.4584L59.1666 22.2084L66.5832 11.9584C66.8444 11.67 67.0213 11.3154 67.0948 10.9334C67.1683 10.5513 67.1355 10.1564 66.9999 9.79171C66.7992 9.42229 66.4954 9.11922 66.1255 8.91947C65.7556 8.71971 65.3355 8.63189 64.9166 8.66671H50.3333V2.41671C50.3333 1.86417 50.1138 1.33427 49.7231 0.943569C49.3324 0.552868 48.8025 0.333374 48.2499 0.333374H23.2499C22.6974 0.333374 22.1675 0.552868 21.7768 0.943569C21.3861 1.33427 21.1666 1.86417 21.1666 2.41671V39.0417L2.16659 58.0417C1.00179 59.2178 0.343717 60.8031 0.333252 62.4584V77.4167C0.333252 79.0743 0.991732 80.664 2.16383 81.8361C3.33594 83.0082 4.92565 83.6667 6.58325 83.6667H81.5833C81.9946 83.6646 82.396 83.5409 82.7371 83.311C83.0782 83.0812 83.3436 82.7555 83.4999 82.375C83.6701 81.9995 83.7174 81.5798 83.6351 81.1758C83.5528 80.7718 83.3451 80.4041 83.0416 80.125ZM60.8333 12.8334L54.9166 21.1667C54.653 21.5144 54.5103 21.9387 54.5103 22.375C54.5103 22.8114 54.653 23.2357 54.9166 23.5834L60.8333 31.9167H41.9999V29.5H48.2499C48.8025 29.5 49.3324 29.2805 49.7231 28.8898C50.1138 28.4991 50.3333 27.9692 50.3333 27.4167V12.8334H60.8333ZM46.1666 25.3334H25.3333V4.50004H46.1666V25.3334ZM6.58325 79.5C6.03072 79.5 5.50081 79.2805 5.11011 78.8898C4.71941 78.4991 4.49992 77.9692 4.49992 77.4167V62.4584C4.49659 62.1851 4.55047 61.9142 4.65811 61.6631C4.76575 61.4119 4.92476 61.1861 5.12492 61L23.2499 42.875L42.6249 62.2084L59.8749 79.5H6.58325ZM65.7916 79.5L47.0416 60.75L52.4166 55.375L76.5416 79.5H65.7916Z" fill="#199635"/>
</svg>
