<svg width="94" height="56" viewBox="0 0 94 56" fill="none" xmlns="http://www.w3.org/2000/svg">
<path d="M92.5125 26.4562C62.5437 -7.7844 31.4406 -7.7844 1.48437 26.4562C1.125 26.8656 0.90625 27.4094 0.90625 28C0.90625 28.5906 1.125 29.1344 1.4875 29.5469L1.48437 29.5437C16.4625 46.6656 31.775 55.3437 46.9938 55.3437C62.2094 55.3437 77.5312 46.6656 92.5094 29.5437C92.8719 29.1343 93.0906 28.5937 93.0906 28C93.0906 27.4062 92.8719 26.8656 92.5063 26.4531L92.5125 26.4562ZM6.3875 28C33.5875 -2.08128 60.4219 -2.06877 87.6125 28C60.4156 58.0656 33.5781 58.0656 6.3875 28ZM47 13.1562C38.8031 13.1562 32.1562 19.8031 32.1562 28C32.1562 36.1969 38.8031 42.8437 47 42.8437C55.1969 42.8437 61.8438 36.1969 61.8438 28C61.8344 19.8062 55.1937 13.1656 47 13.1562ZM47 38.1562C41.3906 38.1562 36.8438 33.6094 36.8438 28C36.8438 22.3906 41.3906 17.8437 47 17.8437C52.6094 17.8437 57.1562 22.3906 57.1562 28C57.15 33.6062 52.6063 38.15 47 38.1562Z" fill="#008324"/>
</svg>
