<svg width="100" height="100" viewBox="0 0 100 100" fill="none" xmlns="http://www.w3.org/2000/svg">
<path d="M95.5125 48.4562C65.5437 14.2156 34.4406 14.2156 4.48437 48.4562C4.125 48.8656 3.90625 49.4094 3.90625 50C3.90625 50.5906 4.125 51.1344 4.4875 51.5469L4.48437 51.5437C19.4625 68.6656 34.775 77.3437 49.9938 77.3437C65.2094 77.3437 80.5312 68.6656 95.5094 51.5437C95.8719 51.1343 96.0906 50.5937 96.0906 50C96.0906 49.4062 95.8719 48.8656 95.5062 48.4531L95.5125 48.4562ZM9.3875 50C36.5875 19.9187 63.4219 19.9312 90.6125 50C63.4156 80.0656 36.5781 80.0656 9.3875 50ZM50 35.1562C41.8031 35.1562 35.1562 41.8031 35.1562 50C35.1562 58.1968 41.8031 64.8437 50 64.8437C58.1969 64.8437 64.8438 58.1968 64.8438 50C64.8344 41.8062 58.1937 35.1656 50 35.1562ZM50 60.1562C44.3906 60.1562 39.8438 55.6094 39.8438 50C39.8438 44.3906 44.3906 39.8437 50 39.8437C55.6094 39.8437 60.1562 44.3906 60.1562 50C60.15 55.6062 55.6063 60.15 50 60.1562Z" fill="#83A11D"/>
</svg>
